PathFileType	4	(X/Y/Z)	walk-thru1-4-TP.trc
DataRate	CameraRate	NumFrames	NumMarkers	Units	OrigDataRate	OrigDataStartFrame	OrigNumFrames
120.00	120.00	       4	60	mm	120.00	128	       508
Frame#	Time	Top.Head			Front.Head			Rear.Head			Jaw			C7			R.Clavicle			L.Clavicle			R.Shoulder			L.Shoulder			R.Scapula			L.Scapula			R.Scap.Inf			R.Biceps.Lateral			R.Elbow			R.Elbow.Medial			R.Forearm			R.Ulna			R.Radius			R.Wrist			R.Thumb.M1			R.Thumb.M2			R.Thumb.M3			R.Finger3.M1			R.Finger3.M2			R.Finger3.M3			L.Biceps.Lateral			L.Elbow			L.Elbow.Medial			L.Forearm			L.Ulna			L.Radius			L.Wrist			L.Thumb.M1			L.Thumb.M2			L.Thumb.M3			L.Finger3.M1			L.Finger3.M2			L.Finger3.M3			V.Sacral			R.ASIS			L.ASIS			R.Thigh			R.Thigh.Front			R.Knee			R.Knee.Medial			R.Shank			R.Ankle			R.Ankle.Medial			R.Heel			R.Toe			R.MedFoot			L.Thigh			L.Knee			L.Knee.Medial			L.Shank			L.Ankle			L.Ankle.Medial			L.Heel			L.Toe			L.MedFoot			V_mid_ASIS			V_R_Knee_JC			V_L_Knee_JC			V_R_Elbow_JC			V_L_Elbow_JC			V_R_Ankle_JC			V_L_Ankle_JC			V_R_Wrist_JC			V_L_Wrist_JC			V_R_ScaTrpz_1stMC_JC			V_R_1stMC_1stPP_JC			V_R_1stPP_1stDP_JC			V_R_LunCap_3rdMC_JC			V_R_3rdMC_3rdPP_JC			V_R_3rdPP_3rdMP_JC			V_R_3rdMP_3rdDP_JC			V_L_ScaTrpz_1stMC_JC			V_L_1stMC_1stPP_JC			V_L_1stPP_1stDP_JC			V_L_LunCap_3rdMC_JC			V_L_3rdMC_3rdPP_JC			V_L_3rdPP_3rdMP_JC			V_L_3rdMP_3rdPP_JC			V_ROOT_JC			V_R_Hip_JC			V_L_Hip_JC			V_R_GlenHum_JC			V_L_GlenHum_JC			V_ForeHead_Ctr			V_Vertex			V_Sagit_Lambdoid_Suture			V_R_FrontoTemp			V_L_FrontoTemporal			V_R_ParietalOccip			V_L_ParietalOcciptal			V_R_Temporal			V_L_Temporal			V_mid_FrontRearHead			V_mid_RLGlenHumCtrs			V_C7_vert			V_C1_vert			V_Mid_Hip			
		X1	Y1	Z1	X2	Y2	Z2	X3	Y3	Z3	X4	Y4	Z4	X5	Y5	Z5	X6	Y6	Z6	X7	Y7	Z7	X8	Y8	Z8	X9	Y9	Z9	X10	Y10	Z10	X11	Y11	Z11	X12	Y12	Z12	X13	Y13	Z13	X14	Y14	Z14	X15	Y15	Z15	X16	Y16	Z16	X17	Y17	Z17	X18	Y18	Z18	X19	Y19	Z19	X20	Y20	Z20	X21	Y21	Z21	X22	Y22	Z22	X23	Y23	Z23	X24	Y24	Z24	X25	Y25	Z25	X26	Y26	Z26	X27	Y27	Z27	X28	Y28	Z28	X29	Y29	Z29	X30	Y30	Z30	X31	Y31	Z31	X32	Y32	Z32	X33	Y33	Z33	X34	Y34	Z34	X35	Y35	Z35	X36	Y36	Z36	X37	Y37	Z37	X38	Y38	Z38	X39	Y39	Z39	X40	Y40	Z40	X41	Y41	Z41	X42	Y42	Z42	X43	Y43	Z43	X44	Y44	Z44	X45	Y45	Z45	X46	Y46	Z46	X47	Y47	Z47	X48	Y48	Z48	X49	Y49	Z49	X50	Y50	Z50	X51	Y51	Z51	X52	Y52	Z52	X53	Y53	Z53	X54	Y54	Z54	X55	Y55	Z55	X56	Y56	Z56	X57	Y57	Z57	X58	Y58	Z58	X59	Y59	Z59	X60	Y60	Z60	

128	1.058	-402.46872	142.44563	1772.08411	-300.30484	117.15971	1654.30017	-532.29828	152.01224	1694.63855	-386.22534	117.86171	1477.27917	-622.26776	136.32091	1568.66125	-526.44348	10.94192	1496.61377	-511.14529	253.76093	1470.39575	-580.15985	-94.46848	1493.90381	-555.07928	358.14557	1466.06067	-689.85315	37.40244	1484.70215	-685.52966	229.78372	1467.21472	-720.09314	30.54775	1393.99231	-615.97162	-135.16083	1356.84106	-682.57013	-175.60519	1177.32312	-678.97565	-78.33229	1162.06287	-585.04572	-176.99889	1113.12683	-641.09149	-189.99159	976.87469	-528.82123	-180.44940	950.58295	-524.20679	-226.07176	920.64313	-509.96338	-172.74019	908.90234	-508.73865	-137.05170	867.91730	-508.69586	-128.70735	817.43701	-507.49194	-227.51978	834.89465	-546.31091	-172.88507	785.98529	-578.10864	-135.81000	824.76178	-615.57513	380.25720	1320.86060	-685.21948	384.99060	1153.67957	-697.16052	289.37830	1134.87976	-604.84167	381.98895	1067.94739	-674.76849	400.42508	966.34711	-582.64502	379.56213	903.08838	-608.51324	419.82516	870.18390	-562.68341	376.49240	845.11890	-547.93481	351.02582	799.68390	-543.77673	351.00452	751.00098	-591.80121	427.86157	769.92590	-594.92358	394.21069	712.32446	-601.24280	335.76004	715.36115	-736.60760	121.09240	1117.58777	-555.25598	-82.43845	1062.35474	-537.48669	268.03873	1057.55957	-583.02600	-76.68442	679.50635	-508.78458	-4.94103	560.30634	-575.49292	-58.99699	511.17371	-573.72650	58.79116	508.35239	-663.73010	-13.51175	306.85141	-854.02972	-32.81892	147.62314	-814.66010	66.75039	155.40646	-917.43744	25.56789	137.88649	-719.05389	-2.19957	40.76563	-747.19379	28.23841	95.24366	-513.87701	266.16418	673.46289	-483.74670	238.44971	536.52026	-494.86212	130.10477	518.93127	-473.52756	189.38431	326.98611	-568.30261	198.74112	78.79116	-520.71704	109.16298	111.69362	-605.60406	126.40717	46.47393	-384.00623	188.64519	43.73997	-448.20605	146.73268	86.56634																																																																																																																															
129	1.067	-396.81735	144.81131	1772.82300	-295.52246	118.05530	1654.31494	-527.68060	152.42778	1694.92847	-381.16031	118.61777	1477.95569	-616.20764	138.15919	1569.11572	-521.07031	12.20538	1496.94434	-505.89853	254.10593	1470.46484	-575.45715	-92.58402	1494.60364	-548.59723	359.43542	1466.93994	-684.46149	38.42249	1484.98572	-679.21246	231.39096	1467.91467	-715.42084	32.20094	1394.80505	-611.65106	-133.41690	1357.12183	-678.96167	-173.33530	1177.64600	-674.67590	-75.65933	1163.77563	-582.60651	-175.28862	1113.96655	-638.60577	-186.95467	976.86469	-526.07642	-180.04953	950.45801	-523.90997	-224.69006	920.39307	-506.08090	-172.97136	910.15747	-502.17197	-139.45703	869.45325	-501.17905	-129.47028	818.28833	-505.12439	-226.61217	835.39313	-540.51959	-170.12067	786.96405	-572.29126	-131.94527	827.52344	-608.72620	382.61432	1321.89563	-677.44385	387.40451	1153.10278	-691.25555	291.17184	1135.07764	-599.38837	384.24237	1068.79663	-666.75226	402.95972	966.04468	-575.12952	381.13553	903.35260	-598.26318	421.21768	871.69373	-554.69537	379.94800	846.74280	-540.35858	351.81412	800.99335	-535.27002	351.81262	751.50110	-582.31079	428.82913	770.36469	-585.46295	395.39758	713.25293	-591.25818	336.30865	717.12878	-731.44788	122.45778	1117.87000	-550.75189	-81.98125	1063.19812	-530.65112	269.27542	1058.06592	-574.13330	-76.40608	679.83350	-497.27179	-5.45998	561.34766	-564.33673	-60.46286	512.09552	-559.91461	56.47601	508.49319	-655.15204	-14.84079	308.52127	-847.65833	-34.87769	152.55711	-808.19464	64.75232	159.51334	-911.01544	26.03811	144.64723	-717.48474	-2.96772	42.07859	-742.76349	27.46946	97.16994	-511.29312	266.27060	673.77252	-482.62631	238.84358	536.36426	-493.28384	131.01797	518.61481	-472.33292	190.33604	326.64087	-568.01501	197.98740	77.14434	-520.49335	109.13042	111.83817	-605.38074	126.37341	46.41889	-384.20340	188.30106	43.51011	-448.08301	146.60597	86.34342																																																																																																																															
130	1.075	-391.70389	144.63147	1772.91943	-289.88797	117.85073	1654.21338	-521.81146	153.57300	1695.78845	-375.45529	120.83298	1478.75708	-612.22668	141.84834	1569.51367	-516.69366	13.81885	1496.93689	-498.79529	254.61543	1470.96167	-571.25336	-91.98009	1495.25867	-543.20398	360.33408	1467.30798	-679.88770	40.62774	1485.40100	-673.65070	232.75401	1467.87976	-709.56226	34.07198	1395.41174	-607.65436	-132.41960	1357.74097	-675.50525	-171.68317	1178.09167	-669.92957	-73.34706	1163.81702	-580.31366	-174.30025	1114.09424	-636.45465	-184.48676	976.91156	-522.78693	-180.29649	951.11230	-522.82758	-224.12646	920.22272	-503.39413	-172.71010	910.74548	-495.79803	-140.35892	869.99786	-492.56512	-130.85350	819.54236	-503.63687	-227.32947	836.24164	-535.41052	-169.06996	788.24701	-564.17383	-129.54234	827.56287	-601.01904	384.57959	1321.00854	-669.98169	389.52338	1153.20667	-685.33984	294.07751	1134.39026	-591.52655	387.23108	1068.76599	-659.35901	404.91077	966.56677	-566.63788	382.88901	904.14172	-590.04242	423.37973	871.80499	-547.18817	380.06073	847.42938	-531.65741	352.91748	802.65942	-526.83777	354.45782	752.02045	-573.11310	430.39844	770.44519	-576.75244	396.49863	713.21716	-582.11072	338.29614	717.00488	-726.73584	123.45250	1118.00171	-546.45941	-80.06434	1063.57397	-526.12280	270.70923	1058.44824	-564.87091	-76.82738	680.69586	-486.93167	-8.19258	562.63855	-553.48492	-60.22824	512.44421	-548.03406	55.96103	508.84476	-646.35052	-15.87507	310.23843	-841.39368	-34.87149	157.22249	-801.72845	65.03396	163.77003	-903.75513	25.66045	150.78946	-715.13733	-4.78196	43.26764	-737.10486	25.81214	99.31578	-508.44791	266.49374	673.54565	-481.18408	239.00143	535.61493	-490.73373	131.48921	518.11865	-471.76236	190.32802	326.60117	-567.77094	197.91225	77.13020	-520.38843	109.27242	111.71953	-605.60406	126.40717	46.47393	-384.62701	187.55142	43.08545	-447.90875	146.69392	86.48328																																																																																																																															
131	1.083	-385.15250	146.30974	1772.35974	-285.68771	119.05767	1654.44348	-516.61316	154.53387	1695.69873	-371.27347	120.67863	1478.08582	-606.33838	140.03720	1569.64575	-512.30243	14.23461	1496.85962	-494.04111	254.53777	1472.11694	-566.77075	-90.40279	1495.65503	-536.09052	361.28995	1466.96021	-674.69348	41.48878	1485.75964	-668.20886	234.07137	1468.16211	-705.39380	35.35312	1395.93201	-604.53918	-130.78378	1357.51526	-673.01367	-168.66145	1177.57520	-665.63507	-71.22449	1164.15063	-577.71472	-172.92975	1113.71484	-635.61108	-181.23727	977.50494	-519.95850	-178.90421	951.25183	-521.21179	-223.67676	920.43152	-500.81284	-172.80627	910.97424	-489.79205	-140.62694	869.91022	-485.09930	-134.62256	818.11823	-500.48300	-229.41562	837.60077	-530.71417	-169.97934	787.75079	-555.33417	-127.71909	826.24701	-594.77618	385.79858	1321.42322	-663.10864	391.49908	1153.91394	-677.80518	297.17142	1134.24109	-583.16785	389.18839	1068.73254	-650.29730	406.76126	966.82861	-558.55725	385.68268	905.96979	-581.70642	425.67551	870.84454	-538.55823	381.15732	848.86127	-524.36487	355.03561	803.26447	-517.57843	354.40143	753.12152	-564.23383	432.17966	770.68353	-567.44141	397.92889	714.63391	-574.44971	338.59573	717.58008	-721.63019	124.92149	1118.67798	-542.42419	-78.86748	1063.32556	-521.67523	272.24185	1058.92346	-555.23749	-75.68495	680.89294	-475.75397	-9.99458	563.85272	-543.51337	-61.37027	514.18011	-536.53613	55.15161	509.56430	-636.82544	-18.02156	311.84152	-834.99634	-33.55725	162.22063	-795.15369	64.91488	167.59511	-898.15594	25.10641	156.21584	-711.11176	-6.61452	45.37474	-730.86774	25.33253	101.16996	-504.18204	268.60043	673.24951	-478.35394	239.60112	535.34595	-490.14923	131.77402	518.27435	-471.04959	191.02385	326.33774	-567.77094	197.91225	77.13020	-520.25854	108.58443	112.16245	-605.38074	126.37341	46.41889	-384.74173	187.45894	43.11622	-447.90659	146.76988	86.14710																																																																																																																															
